<svg xmlns="http://www.w3.org/2000/svg" width="24" height="24" viewBox="0 0 24 24">
  <path d="M4.73962979,14.0405273 C5.87683683,14.0405273 6.78992276,13.144043 6.78992276,12.0234375 C6.78992276,10.902832 5.87683683,9.99804688 4.73962979,9.99804688 C3.62732511,9.99804688 2.71423917,10.902832 2.71423917,12.0234375 C2.71423917,13.144043 3.62732511,14.0405273 4.73962979,14.0405273 Z M12.4842587,14.0405273 C13.6048642,14.0405273 14.5096493,13.144043 14.5096493,12.0234375 C14.5096493,10.902832 13.6048642,9.99804688 12.4842587,9.99804688 C11.371954,9.99804688 10.4671689,10.902832 10.4671689,12.0234375 C10.4671689,13.144043 11.371954,14.0405273 12.4842587,14.0405273 Z M20.2288876,14.0405273 C21.3494931,14.0405273 22.262579,13.144043 22.262579,12.0234375 C22.262579,10.902832 21.3494931,9.99804688 20.2288876,9.99804688 C19.0999814,9.99804688 18.1868954,10.902832 18.1868954,12.0234375 C18.1868954,13.144043 19.0999814,14.0405273 20.2288876,14.0405273 Z" transform="translate(-.5)"/>
</svg>
