<svg xmlns="http://www.w3.org/2000/svg" width="18" height="18" viewBox="0 0 18 18">
  <path d="M22.1998496,13.0834961 C22.6480918,13.0834961 23.0133262,13.4404297 23.0133262,13.8720703 L23.0133262,13.8720703 L23.0133262,21.2099609 L30.1270957,21.2099609 C30.5670371,21.2099609 30.9405723,21.5751953 30.9405723,22.0234375 C30.9405723,22.4633789 30.5670371,22.8369141 30.1270957,22.8369141 L30.1270957,22.8369141 L23.0133262,22.8369141 L23.0133262,30.1665039 C23.0133262,30.5981445 22.6480918,30.9550781 22.1998496,30.9550781 C21.7599082,30.9550781 21.3946738,30.5981445 21.3946738,30.1665039 L21.3946738,30.1665039 L21.3946738,22.8369141 L14.2809043,22.8369141 C13.8409629,22.8369141 13.4674277,22.4633789 13.4674277,22.0234375 C13.4674277,21.5751953 13.8409629,21.2099609 14.2809043,21.2099609 L14.2809043,21.2099609 L21.3946738,21.2099609 L21.3946738,13.8720703 C21.3946738,13.4404297 21.7599082,13.0834961 22.1998496,13.0834961 Z" transform="translate(-13 -13)"/>
</svg>
