<svg xmlns="http://www.w3.org/2000/svg" width="23" height="20" viewBox="0 0 23 20">
  <path d="M95.8577939,13.9848633 C97.0033017,13.9848633 97.6009579,13.2958984 97.6009579,12.1586914 L97.6009579,11.0961914 C97.6009579,9.95898438 97.0033017,9.27001953 95.8577939,9.27001953 L78.1107235,9.27001953 C77.0233212,9.27001953 76.3758603,9.95898438 76.3758603,11.0961914 L76.3758603,12.1586914 C76.3758603,13.2958984 76.9735165,13.9848633 78.1107235,13.9848633 L95.8577939,13.9848633 Z M92.9027157,28.7768555 C94.9447079,28.7768555 96.040411,27.7143555 96.040411,25.6806641 L96.040411,15.3129883 L77.9364071,15.3129883 L77.9364071,25.6806641 C77.9364071,27.7226562 79.0321103,28.7768555 81.0658017,28.7768555 L92.9027157,28.7768555 Z M90.5701962,19.0649414 L83.406622,19.0649414 C82.9832821,19.0649414 82.7010556,18.7744141 82.7010556,18.3344727 L82.7010556,18.0107422 C82.7010556,17.5708008 82.9832821,17.2885742 83.406622,17.2885742 L90.5701962,17.2885742 C91.0018368,17.2885742 91.2840634,17.5708008 91.2840634,18.0107422 L91.2840634,18.3344727 C91.2840634,18.7744141 91.0018368,19.0649414 90.5701962,19.0649414 Z" transform="translate(-75.5 -9)"/>
</svg>
