<svg xmlns="http://www.w3.org/2000/svg" width="19" height="24" viewBox="0 0 19 24">
  <path fill="#2C2C2E" fill-rule="evenodd" d="M21.5108848,10.5849609 L21.5108848,18.3544922 C21.5108848,19.6494141 22.1251426,20.2719727 23.4200645,20.2719727 L23.4200645,20.2719727 L31.1148887,20.2719727 L31.1148887,30.2329102 C31.1148887,32.3662109 30.0440879,33.4619141 27.9190879,33.4619141 L27.9190879,33.4619141 L16.4889121,33.4619141 C14.3639121,33.4619141 13.2931113,32.3745117 13.2931113,30.2329102 L13.2931113,30.2329102 L13.2931113,13.8139648 C13.2931113,11.6723633 14.3805137,10.5849609 16.4889121,10.5849609 L16.4889121,10.5849609 L21.5108848,10.5849609 Z M22.2081504,22.3139648 C21.8097129,22.3139648 21.4776816,22.6459961 21.4776816,23.027832 L21.4776816,23.027832 L21.4776816,26.9375 L21.5357871,28.6391602 L20.4151816,27.5019531 L19.5519004,26.6220703 C19.4190879,26.480957 19.2198691,26.40625 19.037252,26.40625 C18.6388145,26.40625 18.3565879,26.6884766 18.3565879,27.0703125 C18.3565879,27.3193359 18.4561973,27.46875 18.6139121,27.6098633 L18.6139121,27.6098633 L21.6685996,30.4819336 C21.8512168,30.65625 22.0255332,30.730957 22.2081504,30.730957 C22.3824668,30.730957 22.5567832,30.65625 22.7394004,30.4819336 L22.7394004,30.4819336 L25.7940879,27.6098633 C25.9684043,27.4521484 26.0514121,27.3110352 26.0514121,27.0703125 C26.0514121,26.6884766 25.7608848,26.40625 25.370748,26.40625 C25.1798301,26.40625 24.9889121,26.480957 24.8560996,26.6220703 L24.8560996,26.6220703 L23.9928184,27.5019531 L22.8722129,28.6391602 L22.9303184,26.9375 L22.9303184,23.027832 C22.9303184,22.6459961 22.5982871,22.3139648 22.2081504,22.3139648 Z M22.8390098,10.7094727 C23.2208457,10.7758789 23.6192832,11.0664062 24.042623,11.5063477 L24.042623,11.5063477 L30.193502,17.7402344 C30.6334434,18.1801758 30.9156699,18.5537109 30.9820762,18.9521484 L30.9820762,18.9521484 L23.4698691,18.9521484 C23.0465293,18.9521484 22.8390098,18.7363281 22.8390098,18.3129883 L22.8390098,18.3129883 Z" transform="translate(-13 -10)"/>
</svg>
